<svg id="logo" width="32" height="32" viewBox="0 0 15 15" xmlns="http://www.w3.org/2000/svg">
    <path  d="M10.952 7.78736H7.51153V7.61826C7.85682 7.59659 8.09666 7.56479 8.22485 7.52576C8.34684 7.49108 8.40679 7.42026 8.40679 7.31332C8.40679 7.14423 7.88163 6.6138 6.83131 5.72206L5.57217 4.64679L4.91882 5.1035C4.91882 4.75663 4.91882 5.1035 4.91882 4.75663C6.30822 3.75072 7.20761 3.07144 7.61906 2.7159C8.00775 2.38205 8.20004 2.13057 8.20004 1.96148C8.20004 1.87187 8.14836 1.81261 8.0429 1.7837C7.93952 1.75625 7.73691 1.73601 7.43712 1.72445V1.55536H10.3937V1.72445C10.2076 1.73024 10.0174 1.73891 9.82516 1.75047C9.64733 1.76058 9.47366 1.80394 9.30411 1.87766C9.10149 1.96726 8.85546 2.12768 8.56393 2.36038L6.13041 4.22333L9.04981 6.73811C9.43644 7.06474 9.76724 7.29742 10.0422 7.43183C10.3255 7.55613 10.6274 7.61826 10.952 7.61826V7.78736Z" />
    <path  d="M13.8266 4.84467C13.8266 6.07439 13.3603 7.11975 12.4308 7.97851C11.1991 9.10257 9.34662 9.66458 6.87345 9.66458H3.90511C3.7779 9.08019 3.57377 8.7035 3.57377 8.04595V1.60292C3.57377 1.05887 3.44172 0.699306 3.1782 0.523822C2.85771 0.310352 6.424 0.0756432 6.54889 0.0664285C6.94266 0.0374047 7.40134 -0.0147194 7.75087 0.00887433C9.45781 0.12402 10.8166 0.528771 11.8487 1.196C13.1606 2.04413 13.8266 3.25527 13.8266 4.84467ZM12.3375 4.85816C12.3375 3.39915 11.7587 2.25711 10.6041 1.43205C9.68749 0.755379 8.06663 0.418169 5.74141 0.418169C5.29115 0.418169 5.00171 0.483368 4.87629 0.615994C4.79911 0.694673 4.7605 0.856551 4.7605 1.10384V8.52032C4.7605 8.81706 4.86341 9.01489 5.06281 9.11157C5.21398 9.1835 5.52272 9.21721 5.98581 9.21721C10.2214 9.21721 12.3375 7.76496 12.3375 4.85816Z" />
    <path  d="M15.0001 15H10.9791L5.54187 9.40427C6.61244 9.39337 7.85367 9.20379 8.02732 9.38419L12.258 13.779C12.6462 14.1999 13.5618 14.4712 15.0001 14.593V15Z" />
    <path  d="M4.7824 12.4954C4.7824 13.2815 4.98643 13.8207 5.39451 14.106C5.80257 14.3634 6.57891 14.5269 7.72348 14.593V15H0V14.593C1.16447 14.5269 1.95079 14.3495 2.35884 14.0642C2.73207 13.7651 2.91622 13.1459 2.91622 12.2101V2.40376C2.91622 1.54799 2.67236 0.991415 2.18469 0.733999C1.89601 0.584399 1.16447 0.476582 0 0.407003V0H7.78323L7.78542 0.52525C7.40088 0.470658 6.91086 0.472456 6.56738 0.508606C6.0074 0.567527 5.62264 0.660408 5.42435 0.775743C4.99037 1.02817 4.7824 1.57581 4.7824 2.40376C4.7824 5.76778 4.7824 9.13136 4.7824 12.4954Z" />
</svg>